<?xml version="1.0" encoding="iso-8859-1"?>
<!-- Generator: Adobe Illustrator 18.0.0, SVG Export Plug-In . SVG Version: 6.00 Build 0)  -->
<!DOCTYPE svg PUBLIC "-//W3C//DTD SVG 1.1//EN" "http://www.w3.org/Graphics/SVG/1.1/DTD/svg11.dtd">
<svg version="1.1" id="Capa_1" xmlns="http://www.w3.org/2000/svg" xmlns:xlink="http://www.w3.org/1999/xlink" x="0px" y="0px"
	 viewBox="0 0 262.063 262.063" style="enable-background:new 0 0 262.063 262.063;" xml:space="preserve">
<g>
	<path d="M194.441,92.5c0-14.625-5.642-27.953-14.855-37.938C178.818,24.348,154.02,0,123.623,0c-30.879,0-56,25.122-56,56
		c0,14.249,5.254,27.607,14.85,37.973c0.097,3.736,0.556,7.425,1.38,11.033c-1.406,1.956-1.789,4.469-1.024,6.755l12.05,36.071
		c0.005,0.016,0.011,0.031,0.016,0.047l36.434,109.06c1.022,3.06,3.887,5.124,7.113,5.124s6.091-2.063,7.113-5.124l48.5-145.179
		c0.764-2.286,0.382-4.799-1.025-6.756C193.962,100.923,194.441,96.74,194.441,92.5z M100.354,116.885h76.174l-7.093,21.231h-61.988
		L100.354,116.885z M98.526,101.885c-0.716-3.058-1.085-6.198-1.085-9.385c0-22.607,18.393-41,41-41s41,18.393,41,41
		c0,3.186-0.37,6.326-1.086,9.385H98.526z M123.623,15c17.596,0,32.634,11.144,38.439,26.742
		c-7.182-3.356-15.184-5.242-23.621-5.242c-23.869,0-44.286,15.016-52.331,36.093C83.83,67.442,82.623,61.824,82.623,56
		C82.623,33.393,101.015,15,123.623,15z M138.441,230.894l-25.983-77.777h51.966L138.441,230.894z"/>
</g>
<g>
</g>
<g>
</g>
<g>
</g>
<g>
</g>
<g>
</g>
<g>
</g>
<g>
</g>
<g>
</g>
<g>
</g>
<g>
</g>
<g>
</g>
<g>
</g>
<g>
</g>
<g>
</g>
<g>
</g>
</svg>
